<svg width="385" height="180" viewBox="0 0 385 180" fill="none" xmlns="http://www.w3.org/2000/svg">
<path d="M240.688 61.5C237.688 71 235.188 73.5 227.188 84L244.188 84.5C246.355 85.8333 255.388 88.2 274.188 87C277.521 86.8333 285.788 84.4 292.188 76C293.521 72.5 296.088 63.3 295.688 54.5C295.688 51.1667 294.588 41.9 290.188 31.5C285.855 22.8333 276.788 4.6 275.188 1C275.021 0.666667 271.688 0 259.688 0C258.688 0.666667 256.688 3.7 256.688 10.5C256.688 11.1667 257.488 13.4 260.688 17C262.688 17.6667 267.288 18.5 269.688 16.5C269.355 16 269.588 15 273.188 15C273.688 25.8333 274.588 48.3 274.188 51.5C273.788 54.7 273.355 55.8333 273.188 56L265.188 49.5C264.355 48.8333 260.988 47.5 254.188 47.5C245.688 47.5 243.688 52 240.688 61.5Z" fill="#3385D9"/>
<path d="M226.188 33.5C219.521 31 203.888 29.8 194.688 45C193.688 43.5 190.088 39.3 183.688 34.5C180.188 32 170.488 28.7 159.688 35.5C156.188 38 148.5 48 152.688 64.5C154.5 70.5 167.488 85.8 194.688 101C204.188 98.1667 225.888 86 236.688 60C238.521 55 238.988 42.7 226.188 33.5Z" fill="#3385D9"/>
<path d="M144.688 84.5H161.688C160.355 83.5 156.588 79.9 152.188 73.5C151.188 71.8333 148.288 66 144.688 56C144.021 54.5 140.088 50.8 129.688 48C127.355 48 120.788 49.7 113.188 56.5V14.5H116.188C118.188 15.5 123.088 17.3 126.688 16.5C128.521 12.3333 131.288 3.2 127.688 0H113.188C112.521 0.333333 111.188 2.2 111.188 7C110.688 7 108.588 9.3 104.188 18.5C101.188 22.3333 94.3881 35.8 91.1881 59C90.1881 65.3333 92.6881 79.7 110.688 86.5C115.855 87.3333 129.888 88.1 144.688 84.5Z" fill="#3385D9"/>
<path d="M20.3594 148.55L26.2676 131.289C26.4792 130.654 26.585 130.068 26.585 129.531C26.585 128.994 26.4629 128.612 26.2188 128.384C25.9746 128.14 25.6816 127.977 25.3398 127.896C24.998 127.798 24.64 127.725 24.2656 127.676C23.8913 127.611 23.5739 127.456 23.3135 127.212V125.308H33.4209V127.139C33.1442 127.334 32.8431 127.489 32.5176 127.603C32.1921 127.7 31.8665 127.822 31.541 127.969C30.7598 128.359 30.2389 128.953 29.9785 129.751L21.873 152.896L20.3594 148.55ZM21.2139 154.702L19.334 160H15.1104L4.31934 129.702C3.91243 128.563 3.0498 127.839 1.73145 127.529C1.38965 127.448 1.06413 127.318 0.754883 127.139V125.308H16.2822V127.09C15.9079 127.236 15.5173 127.358 15.1104 127.456C14.7035 127.554 14.321 127.676 13.9629 127.822C13.1491 128.148 12.7422 128.66 12.7422 129.36C12.7422 129.767 12.9701 130.63 13.4258 131.948L21.2139 154.702ZM45.6279 157.437C48.8994 157.274 51.0967 155.467 52.2197 152.017L54.4658 153.042C53.2451 157.518 50.2992 159.959 45.6279 160.366V157.437ZM44.8955 134.976C48.2484 135.22 50.763 136.554 52.4395 138.979C53.9368 141.128 54.6855 144.001 54.6855 147.598H42.1123V145.107H47.166C47.166 143.024 47.0033 141.38 46.6777 140.176C46.3685 138.955 45.7744 138.198 44.8955 137.905V134.976ZM43.4551 160.366C39.9232 160.09 37.0749 158.714 34.9102 156.24C32.8919 153.945 31.8828 151.121 31.8828 147.769C31.8828 144.253 32.9001 141.299 34.9346 138.906C36.9528 136.514 39.5488 135.203 42.7227 134.976V137.905C41.6484 138.28 40.8916 139.289 40.4521 140.933C40.029 142.576 39.8174 144.432 39.8174 146.499C39.8174 148.55 39.8662 150.088 39.9639 151.113C40.0778 152.122 40.2731 153.034 40.5498 153.848C41.1195 155.557 42.0879 156.753 43.4551 157.437V160.366ZM72.7275 139.712C71.9788 139.712 71.2139 140.55 70.4326 142.227L70.2861 137.563C71.6208 135.838 73.3298 134.976 75.4131 134.976C76.6338 134.976 77.6755 135.423 78.5381 136.318C79.3519 137.165 79.7588 138.149 79.7588 139.272C79.7588 140.461 79.417 141.462 78.7334 142.275C78.0173 143.138 77.1058 143.569 75.999 143.569C74.876 143.569 74.0215 143.154 73.4355 142.324C72.9635 141.624 72.7275 140.754 72.7275 139.712ZM67.8936 135.464C68.2354 139.305 68.4062 143.626 68.4062 148.428V155.654C68.4062 156.517 68.805 157.127 69.6025 157.485C69.9606 157.648 70.3512 157.795 70.7744 157.925C71.2139 158.055 71.6452 158.226 72.0684 158.438V160H57.9326V158.438C58.2419 158.226 58.5837 158.071 58.958 157.974C59.3324 157.876 59.6823 157.762 60.0078 157.632C60.7728 157.323 61.1553 156.745 61.1553 155.898V139.712C61.1553 138.817 60.7728 138.223 60.0078 137.93C59.6823 137.816 59.3324 137.718 58.958 137.637C58.5837 137.555 58.2419 137.401 57.9326 137.173V135.464H67.8936ZM90.0859 158.169L82.5664 140.298C81.9316 138.866 81.0446 137.987 79.9053 137.661C79.6123 137.58 79.3356 137.466 79.0752 137.319V135.464H92.9912V137.271C92.7796 137.45 92.5273 137.572 92.2344 137.637C91.9414 137.686 91.6566 137.751 91.3799 137.832C90.7126 138.06 90.3789 138.532 90.3789 139.248C90.3789 139.704 90.5417 140.322 90.8672 141.104L93.7969 148.379L90.0859 158.169ZM85.9111 166.421C85.9111 166.925 86.1715 167.178 86.6924 167.178C87.2295 167.178 87.6934 167.031 88.084 166.738C88.4909 166.445 88.8734 166.038 89.2314 165.518C89.8337 164.606 90.5173 163.141 91.2822 161.123L98.7285 141.567C99.1842 140.396 99.4121 139.622 99.4121 139.248C99.4121 138.874 99.3145 138.589 99.1191 138.394C98.9238 138.198 98.6715 138.044 98.3623 137.93C98.0693 137.799 97.7438 137.694 97.3857 137.612C97.0439 137.515 96.7184 137.401 96.4092 137.271V135.464H105.491V136.611C105.491 137.002 105.361 137.279 105.101 137.441C104.856 137.604 104.563 137.767 104.222 137.93C103.88 138.076 103.53 138.28 103.172 138.54C102.814 138.8 102.529 139.215 102.317 139.785L93.5039 162.734C92.5599 165.192 91.4531 167.056 90.1836 168.325C88.9141 169.611 87.3353 170.254 85.4473 170.254C83.7057 170.254 82.3385 169.749 81.3457 168.74C80.4505 167.796 80.0029 166.657 80.0029 165.322C80.0029 163.564 80.7272 162.36 82.1758 161.709C82.6478 161.514 83.1361 161.416 83.6406 161.416C84.1615 161.416 84.609 161.489 84.9834 161.636C85.3577 161.799 85.6914 162.002 85.9844 162.246C86.5703 162.783 86.8633 163.32 86.8633 163.857C86.8633 164.411 86.8145 164.818 86.7168 165.078C86.6191 165.339 86.5052 165.55 86.375 165.713C86.2611 165.892 86.1553 166.03 86.0576 166.128C85.96 166.226 85.9111 166.323 85.9111 166.421ZM120.604 127.676C116.844 128.522 114.964 133.535 114.964 142.715C114.964 151.878 116.844 156.761 120.604 157.363V160.488H120.091C117.991 160.488 116.071 160.024 114.329 159.097C112.588 158.153 111.098 156.875 109.861 155.264C107.225 151.829 105.906 147.622 105.906 142.642C105.906 137.694 107.257 133.503 109.959 130.068C111.717 127.822 113.882 126.243 116.453 125.332C117.755 124.86 119.139 124.6 120.604 124.551V127.676ZM122.776 124.551C124.941 124.762 126.984 125.495 128.904 126.748C129.262 126.976 129.555 127.09 129.783 127.09C130.158 127.09 130.597 126.496 131.102 125.308H133.299V138.003H131.492C131.118 137.563 130.687 136.66 130.198 135.293C129.71 133.926 129.287 132.852 128.929 132.07C128.587 131.289 128.147 130.581 127.61 129.946C126.373 128.498 124.762 127.741 122.776 127.676V124.551ZM122.776 157.363C124.095 157.233 125.022 156.737 125.56 155.874C126.113 154.995 126.39 153.913 126.39 152.627C126.39 151.341 126.365 150.283 126.316 149.453C126.284 148.623 126.137 147.874 125.877 147.207C125.291 145.742 124.07 145.01 122.215 145.01V143.105H137.132C137.083 143.35 137.034 143.586 136.985 143.813C136.937 144.025 136.888 144.245 136.839 144.473C136.79 144.701 136.741 144.912 136.692 145.107C135.813 145.498 135.228 146.003 134.935 146.621C134.642 147.223 134.495 147.964 134.495 148.843V151.797C134.495 156.663 132.086 159.43 127.269 160.098C125.853 160.293 124.355 160.423 122.776 160.488V157.363ZM151.512 137.905C149.542 138.621 148.558 141.885 148.558 147.695C148.558 150.56 148.777 152.798 149.217 154.409C149.673 156.004 150.438 157.013 151.512 157.437V160.366C148.273 160.106 145.604 158.804 143.504 156.46C141.388 154.1 140.33 151.203 140.33 147.769C140.33 144.399 141.388 141.494 143.504 139.053C145.669 136.595 148.338 135.236 151.512 134.976V137.905ZM156.663 147.695C156.663 141.885 155.67 138.621 153.685 137.905V134.976C156.907 135.236 159.576 136.595 161.692 139.053C163.808 141.494 164.866 144.399 164.866 147.769C164.866 151.203 163.808 154.1 161.692 156.46C159.593 158.804 156.924 160.106 153.685 160.366V157.437C154.759 157.03 155.524 156.029 155.979 154.434C156.435 152.822 156.663 150.576 156.663 147.695ZM179.1 137.905C177.13 138.621 176.146 141.885 176.146 147.695C176.146 150.56 176.365 152.798 176.805 154.409C177.26 156.004 178.025 157.013 179.1 157.437V160.366C175.861 160.106 173.191 158.804 171.092 156.46C168.976 154.1 167.918 151.203 167.918 147.769C167.918 144.399 168.976 141.494 171.092 139.053C173.257 136.595 175.926 135.236 179.1 134.976V137.905ZM184.251 147.695C184.251 141.885 183.258 138.621 181.272 137.905V134.976C184.495 135.236 187.164 136.595 189.28 139.053C191.396 141.494 192.454 144.399 192.454 147.769C192.454 151.203 191.396 154.1 189.28 156.46C187.181 158.804 184.511 160.106 181.272 160.366V157.437C182.347 157.03 183.112 156.029 183.567 154.434C184.023 152.822 184.251 150.576 184.251 147.695ZM211.058 157.705V128.726C211.058 127.863 210.675 127.269 209.91 126.943C209.585 126.813 209.235 126.707 208.86 126.626C208.486 126.528 208.144 126.374 207.835 126.162V124.478H218.309V155.898C218.309 156.745 218.683 157.323 219.432 157.632C219.741 157.762 220.058 157.876 220.384 157.974C220.726 158.071 221.019 158.226 221.263 158.438V160H211.375L211.058 157.705ZM208.885 159.634C207.908 160.122 206.728 160.366 205.345 160.366C203.961 160.366 202.643 160.049 201.39 159.414C200.136 158.763 199.07 157.884 198.191 156.777C196.32 154.482 195.384 151.618 195.384 148.184C195.384 144.473 196.466 141.315 198.631 138.711C200.73 136.221 203.229 134.976 206.126 134.976C207.249 134.976 208.169 135.13 208.885 135.439V138.223C208.543 138.011 208.03 137.905 207.347 137.905C206.679 137.905 206.085 138.166 205.564 138.687C205.06 139.207 204.653 139.899 204.344 140.762C203.774 142.373 203.489 144.245 203.489 146.377C203.489 148.509 203.53 150.186 203.611 151.406C203.693 152.627 203.872 153.685 204.148 154.58C204.718 156.484 205.776 157.437 207.322 157.437C208.038 157.437 208.559 157.29 208.885 156.997V159.634ZM232.054 143.569V154.604C232.054 155.923 232.501 156.81 233.396 157.266C233.771 157.477 234.178 157.64 234.617 157.754C235.073 157.868 235.504 158.047 235.911 158.291V160H225.071V158.291C225.413 158.047 225.796 157.868 226.219 157.754C226.658 157.624 227.065 157.461 227.439 157.266C228.335 156.81 228.782 155.923 228.782 154.604V134.854L232.054 143.569ZM229.71 131.191C229.433 130.508 229.181 129.906 228.953 129.385C228.53 129.287 228.09 129.189 227.635 129.092C227.195 128.994 226.756 128.896 226.316 128.799C225.372 128.555 224.64 128.327 224.119 128.115V125.308H235.887L246.458 152.993L244.7 160H240.501L229.71 131.191ZM245.774 145.181L250.755 125.308H263.646V127.139C263.206 127.318 262.783 127.456 262.376 127.554C261.969 127.635 261.603 127.757 261.277 127.92C260.561 128.278 260.203 128.97 260.203 129.995V155.361C260.203 156.37 260.561 157.054 261.277 157.412C261.603 157.575 261.969 157.705 262.376 157.803C262.783 157.884 263.206 158.014 263.646 158.193V160H248.777V158.193C249.217 158.014 249.64 157.884 250.047 157.803C250.47 157.705 250.844 157.575 251.17 157.412C251.902 157.054 252.269 156.37 252.269 155.361V130.557H252.146L247.435 149.478L245.774 145.181ZM280.833 159.512C279.759 160.081 278.147 160.366 275.999 160.366C273.851 160.366 272.207 159.756 271.067 158.535C269.928 157.314 269.358 155.459 269.358 152.969V139.712C269.358 138.849 268.968 138.263 268.187 137.954C267.861 137.824 267.511 137.718 267.137 137.637C266.779 137.555 266.461 137.401 266.185 137.173V135.464H276.609V153.628C276.609 154.865 276.805 155.809 277.195 156.46C277.602 157.111 278.18 157.437 278.929 157.437C279.677 157.437 280.312 157.266 280.833 156.924V159.512ZM283.03 139.712C283.03 138.849 282.64 138.263 281.858 137.954C281.533 137.824 281.183 137.718 280.809 137.637C280.451 137.539 280.117 137.384 279.808 137.173V135.464H290.257V155.801C290.257 156.631 290.647 157.201 291.429 157.51C291.754 157.64 292.096 157.754 292.454 157.852C292.828 157.933 293.154 158.079 293.431 158.291V160H283.03V139.712ZM305.101 137.905C303.603 138.312 302.854 139.02 302.854 140.029C302.854 141.657 304.279 143.016 307.127 144.106C309.373 144.969 310.96 145.645 311.888 146.133C312.832 146.605 313.621 147.126 314.256 147.695C315.672 148.997 316.38 150.617 316.38 152.554C316.38 154.849 315.509 156.688 313.768 158.071C312.075 159.406 309.91 160.171 307.273 160.366V157.437C308.982 157.03 309.837 156.086 309.837 154.604C309.837 153.075 308.437 151.764 305.638 150.674C303.44 149.827 301.878 149.168 300.95 148.696C300.039 148.224 299.274 147.712 298.655 147.158C297.272 145.921 296.58 144.399 296.58 142.593C296.58 140.64 297.41 138.906 299.07 137.393C300.747 135.879 302.757 135.073 305.101 134.976V137.905ZM311.79 138.418C311.432 138.271 309.926 138.101 307.273 137.905V134.976C310.105 135.09 312.319 135.765 313.914 137.002C315.249 138.044 315.916 139.199 315.916 140.469C315.916 142.048 315.314 143.089 314.109 143.594C313.686 143.757 313.1 143.838 312.352 143.838C311.603 143.838 310.984 143.602 310.496 143.13C310.024 142.642 309.788 142.048 309.788 141.348C309.788 140.16 310.455 139.183 311.79 138.418ZM300.901 156.753C301.325 157.127 302.724 157.355 305.101 157.437V160.366C302.399 160.155 300.275 159.438 298.729 158.218C297.426 157.176 296.775 155.988 296.775 154.653C296.775 153.774 297.02 153.058 297.508 152.505C297.996 151.935 298.737 151.65 299.729 151.65C300.722 151.65 301.455 151.87 301.927 152.31C302.415 152.749 302.659 153.319 302.659 154.019C302.659 155.239 302.073 156.151 300.901 156.753ZM336.082 138.809C335.708 138.239 334.975 137.938 333.885 137.905V134.976C336.163 135.171 338.019 135.895 339.451 137.148C340.818 138.353 341.502 139.785 341.502 141.445C341.502 142.487 341.266 143.285 340.794 143.838C339.931 144.847 338.865 145.352 337.596 145.352C336.44 145.352 335.496 145.01 334.764 144.326C334.113 143.74 333.787 143.032 333.787 142.202C333.787 140.754 334.552 139.622 336.082 138.809ZM333.885 157.437C336.229 157.388 337.889 156.322 338.865 154.238C339.174 153.587 339.427 152.879 339.622 152.114L341.893 153.14C340.883 157.469 338.214 159.878 333.885 160.366V157.437ZM331.712 160.366C328.066 160.334 325.063 159.113 322.703 156.704C320.457 154.393 319.334 151.496 319.334 148.013C319.334 144.302 320.424 141.25 322.605 138.857C324.868 136.4 327.903 135.106 331.712 134.976V137.905C330.28 138.296 329.181 139.321 328.416 140.981C327.651 142.642 327.269 144.831 327.269 147.549C327.269 151.585 328.074 154.466 329.686 156.191C330.255 156.777 330.931 157.192 331.712 157.437V160.366ZM353.758 155.898C353.758 156.745 354.148 157.323 354.93 157.632C355.255 157.762 355.605 157.876 355.979 157.974C356.354 158.071 356.704 158.226 357.029 158.438V160H343.284V158.438C343.593 158.226 343.935 158.071 344.31 157.974C344.684 157.876 345.034 157.762 345.359 157.632C346.124 157.323 346.507 156.745 346.507 155.898V128.726C346.507 127.863 346.124 127.269 345.359 126.943C345.034 126.813 344.684 126.707 344.31 126.626C343.935 126.528 343.593 126.374 343.284 126.162V124.478H353.758V155.898ZM373.265 157.437C376.536 157.274 378.733 155.467 379.856 152.017L382.103 153.042C380.882 157.518 377.936 159.959 373.265 160.366V157.437ZM372.532 134.976C375.885 135.22 378.4 136.554 380.076 138.979C381.574 141.128 382.322 144.001 382.322 147.598H369.749V145.107H374.803C374.803 143.024 374.64 141.38 374.314 140.176C374.005 138.955 373.411 138.198 372.532 137.905V134.976ZM371.092 160.366C367.56 160.09 364.712 158.714 362.547 156.24C360.529 153.945 359.52 151.121 359.52 147.769C359.52 144.253 360.537 141.299 362.571 138.906C364.59 136.514 367.186 135.203 370.359 134.976V137.905C369.285 138.28 368.528 139.289 368.089 140.933C367.666 142.576 367.454 144.432 367.454 146.499C367.454 148.55 367.503 150.088 367.601 151.113C367.715 152.122 367.91 153.034 368.187 153.848C368.756 155.557 369.725 156.753 371.092 157.437V160.366Z" fill="black"/>
</svg>
